<?xml version="1.0" encoding="UTF-8"?>
<svg width="24px" height="24px" viewBox="0 0 24 24" version="1.1" xmlns="http://www.w3.org/2000/svg" xmlns:xlink="http://www.w3.org/1999/xlink">
    <!-- Generator: Sketch 55.2 (78181) - https://sketchapp.com -->
    <title>锁定</title>
    <desc>Created with Sketch.</desc>
    <g id="OSS故障@20200214" stroke="none" stroke-width="1" fill="none" fill-rule="evenodd">
        <g id="OSS故障_告警流水监控窗_全屏" transform="translate(-1171.000000, -270.000000)" fill="#2C9CFA">
            <g id="编组-2" transform="translate(43.000000, 106.000000)">
                <g id="编组-11备份" transform="translate(16.000000, 52.000000)">
                    <g id="编组-26" transform="translate(16.000000, 112.000000)">
                        <g id="编组-4" transform="translate(1048.000000, 0.000000)">
                            <g id="Icon/interface/20.lock/fill" transform="translate(48.000000, 0.000000)">
                                <path d="M19.1015625,10.5567187 C19.7488379,10.5578816 20.2730509,11.0827237 20.2734375,11.73 L20.2734375,19.7561719 C20.2731801,20.4035397 19.7489293,20.9285244 19.1015625,20.9296875 L4.8984375,20.9296875 C4.25107069,20.9285244 3.72681994,20.4035397 3.7265625,19.7561719 L3.7265625,11.73 C3.72694912,11.0827237 4.25116213,10.5578816 4.8984375,10.5567187 L6.796875,10.5567187 L6.796875,5.65171875 C6.796875,4.22835937 7.95351563,3.0703125 9.375,3.0703125 L14.578125,3.0703125 C15.9996094,3.0703125 17.15625,4.22835937 17.15625,5.65171875 L17.15625,10.5098437 C17.15625,10.5255469 17.15625,10.54125 17.15625,10.5567187 L19.1015625,10.5567187 Z M12.6796875,16.1601562 C13.083216,15.8575099 13.2478094,15.3306028 13.0883007,14.8520768 C12.9287921,14.3735509 12.4809731,14.0507812 11.9765625,14.0507812 C11.4721519,14.0507812 11.0243329,14.3735509 10.8648243,14.8520768 C10.7053156,15.3306028 10.869909,15.8575099 11.2734375,16.1601562 L11.2734375,17.0039062 C11.2734375,17.3922315 11.5882373,17.7070312 11.9765625,17.7070312 C12.3648877,17.7070312 12.6796875,17.3922315 12.6796875,17.0039062 L12.6796875,16.1601562 Z M8.671875,10.5585938 L15.28125,10.5585938 C15.28125,10.543125 15.28125,10.5274219 15.28125,10.5117188 L15.28125,5.66015625 C15.28125,5.27183104 14.9664502,4.95703125 14.578125,4.95703125 L9.375,4.95703125 C8.98667479,4.95703125 8.671875,5.27183104 8.671875,5.66015625 L8.671875,10.5585938 Z" id="合并形状"></path>
                            </g>
                        </g>
                    </g>
                </g>
            </g>
        </g>
    </g>
</svg>