<svg width="769" height="473" viewBox="0 0 769 473" xmlns="http://www.w3.org/2000/svg" xmlns:xlink="http://www.w3.org/1999/xlink"><defs><linearGradient x1="0%" y1="50%" y2="50%" id="a"><stop stop-color="#28C4FF" offset="0%"/><stop stop-color="#34EDCB" offset="100%"/></linearGradient><linearGradient x1="0%" y1="66.626%" y2="33.374%" id="b"><stop stop-color="#28C4FF" offset="0%"/><stop stop-color="#34EDCB" offset="100%"/></linearGradient><linearGradient x1="8.219%" y1="52.873%" y2="50%" id="c"><stop stop-color="#529AFC" offset="0%"/><stop stop-color="#114BBC" offset="100%"/></linearGradient><linearGradient x1="100.004%" y1="50%" x2="100.004%" y2="168.843%" id="d"><stop stop-color="#28A3FF" offset="0%"/><stop stop-color="#34EDCB" offset="100%"/></linearGradient><linearGradient x1=".006%" y1="49.983%" x2="100.004%" y2="49.983%" id="e"><stop stop-color="#28DDFF" offset="0%"/><stop stop-color="#34EDE1" offset="100%"/></linearGradient><linearGradient x1=".441%" y1="50%" y2="50%" id="f"><stop stop-color="#94CCFF" offset="0%"/><stop stop-color="#3C8DFF" offset="100%"/></linearGradient><linearGradient x1="0%" y1="53.286%" y2="50%" id="g"><stop stop-color="#FFF" offset="0%"/><stop stop-color="#81A2D4" offset="100%"/></linearGradient><linearGradient x1="0%" y1="50%" x2="99%" y2="50%" id="h"><stop stop-color="#E3EEFE" offset="0%"/><stop stop-color="#D0E2FF" offset="100%"/></linearGradient><path d="M80.206 8.74l40.214 23.195a2.4 2.4 0 0 1 .012 4.15L80.82 59.243a6 6 0 0 1-6.026.017L34.58 36.065a2.4 2.4 0 0 1-.012-4.15L74.18 8.757a6 6 0 0 1 6.026-.017z" id="i"/><filter x=".9%" y="-1%" width="98.1%" height="102.1%" filterUnits="objectBoundingBox" id="j"><feGaussianBlur stdDeviation=".5" in="SourceAlpha" result="shadowBlurInner1"/><feOffset dx="2" dy="1" in="shadowBlurInner1" result="shadowOffsetInner1"/><feComposite in="shadowOffsetInner1" in2="SourceAlpha" operator="arithmetic" k2="-1" k3="1" result="shadowInnerInner1"/><feColorMatrix values="0 0 0 0 0.0666666667 0 0 0 0 0.478431373 0 0 0 0 0.807843137 0 0 0 0.843804633 0" in="shadowInnerInner1"/></filter><linearGradient x1="94.542%" y1="50%" x2="2.913%" y2="46.882%" id="k"><stop stop-color="#F1F6FF" offset="0%"/><stop stop-color="#80A1D3" offset="100%"/></linearGradient><linearGradient x1="3.922%" y1="50%" x2="94.823%" y2="50%" id="l"><stop stop-color="#AEC7EB" offset="0%"/><stop stop-color="#E3EEFE" offset="100%"/></linearGradient><linearGradient x1="8.219%" y1="52.899%" y2="50%" id="m"><stop stop-color="#529AFC" offset="0%"/><stop stop-color="#114BBC" offset="100%"/></linearGradient><linearGradient x1=".441%" y1="50%" y2="50%" id="n"><stop stop-color="#94CCFF" offset="0%"/><stop stop-color="#3C8DFF" offset="100%"/></linearGradient><linearGradient x1="50%" y1="0%" x2="50%" y2="100%" id="o"><stop stop-color="#00FFFE" stop-opacity="0" offset="0%"/><stop stop-color="#00FFFC" stop-opacity=".3" offset="100%"/></linearGradient><linearGradient x1="50%" y1="0%" x2="50%" y2="100%" id="p"><stop stop-color="#00FFFE" stop-opacity="0" offset="0%"/><stop stop-color="#00FFFC" stop-opacity=".3" offset="100%"/></linearGradient><linearGradient x1="41.987%" y1="108.187%" x2="41.987%" y2="0%" id="q"><stop stop-color="#3158D3" offset="0%"/><stop stop-color="#5C90FF" offset="100%"/></linearGradient><linearGradient x1="0%" y1="67.072%" y2="32.928%" id="r"><stop stop-color="#28C4FF" offset="0%"/><stop stop-color="#34EDCB" offset="100%"/></linearGradient><linearGradient x1="0%" y1="53.259%" y2="50%" id="s"><stop stop-color="#FFF" offset="0%"/><stop stop-color="#81A2D4" offset="100%"/></linearGradient><linearGradient x1="0%" y1="50%" x2="99%" y2="50%" id="t"><stop stop-color="#E3EEFE" offset="0%"/><stop stop-color="#D0E2FF" offset="100%"/></linearGradient><linearGradient x1="3.266%" y1="13.286%" x2="98.651%" y2="13.286%" id="u"><stop stop-color="#608DF1" offset="0%"/><stop stop-color="#85A7F1" offset="99.33%"/></linearGradient><linearGradient x1="3.266%" y1="13.286%" x2="98.012%" y2="13.286%" id="v"><stop stop-color="#00B0FF" offset="0%"/><stop stop-color="#00B0FF" offset="100%"/></linearGradient><linearGradient x1="99.377%" y1="50%" x2="10.187%" y2="0%" id="w"><stop stop-color="#FFAB62" offset="0%"/><stop stop-color="#FF6467" offset="100%"/></linearGradient><linearGradient x1=".006%" y1="49.983%" x2="100.004%" y2="49.983%" id="x"><stop stop-color="#28DDFF" offset="0%"/><stop stop-color="#34EDE1" offset="100%"/></linearGradient><linearGradient x1=".006%" y1="49.983%" x2="100.004%" y2="49.983%" id="y"><stop stop-color="#28DDFF" offset="0%"/><stop stop-color="#34EDE1" offset="100%"/></linearGradient><linearGradient x1="0%" y1="32.928%" x2="106.54%" y2="72.81%" id="z"><stop stop-color="#28C4FF" offset="0%"/><stop stop-color="#34EDCB" offset="100%"/></linearGradient><linearGradient x1="0%" y1="63.63%" y2="36.37%" id="A"><stop stop-color="#28C4FF" offset="0%"/><stop stop-color="#34EDCB" offset="100%"/></linearGradient><linearGradient x1="100%" y1="50%" x2="0%" y2="53.259%" id="B"><stop stop-color="#FFF" offset="0%"/><stop stop-color="#81A2D4" offset="100%"/></linearGradient><linearGradient x1="99%" y1="50%" x2="0%" y2="50%" id="C"><stop stop-color="#E3EEFE" offset="0%"/><stop stop-color="#D0E2FF" offset="100%"/></linearGradient><linearGradient x1="100%" y1="50%" x2="0%" y2="53.225%" id="D"><stop stop-color="#FFF" offset="0%"/><stop stop-color="#81A2D4" offset="100%"/></linearGradient><linearGradient x1="99%" y1="50%" x2="0%" y2="50%" id="E"><stop stop-color="#E3EEFE" offset="0%"/><stop stop-color="#D0E2FF" offset="100%"/></linearGradient><linearGradient x1="0%" y1="43.843%" y2="43.843%" id="F"><stop stop-color="#7DB8FE" offset="0%"/><stop stop-color="#1154C0" offset="100%"/></linearGradient><linearGradient x1="3.024%" y1="50%" x2="94.58%" y2="50%" id="G"><stop stop-color="#9DCBFF" offset="0%"/><stop stop-color="#4793FF" offset="100%"/></linearGradient><linearGradient x1="50%" y1="0%" x2="50%" y2="100%" id="H"><stop stop-color="#00FFFE" stop-opacity="0" offset="0%"/><stop stop-color="#00FFFC" stop-opacity=".3" offset="100%"/></linearGradient><linearGradient x1="50%" y1="0%" x2="50%" y2="100%" id="I"><stop stop-color="#00FFFE" stop-opacity="0" offset="0%"/><stop stop-color="#00FFFC" stop-opacity=".3" offset="100%"/></linearGradient><path d="M60.786 10.156l37.787 21.449a2.25 2.25 0 0 1 .011 3.907l-37.22 21.413c-1.727.993-3.85.999-5.582.016L17.995 35.492a2.25 2.25 0 0 1-.011-3.907l37.22-21.412c1.727-.994 3.85-1 5.582-.017z" id="J"/><filter x=".9%" y="-1.3%" width="98.2%" height="102.6%" filterUnits="objectBoundingBox" id="K"><feGaussianBlur stdDeviation=".5" in="SourceAlpha" result="shadowBlurInner1"/><feOffset dx="-2" dy="1" in="shadowBlurInner1" result="shadowOffsetInner1"/><feComposite in="shadowOffsetInner1" in2="SourceAlpha" operator="arithmetic" k2="-1" k3="1" result="shadowInnerInner1"/><feColorMatrix values="0 0 0 0 0.0666666667 0 0 0 0 0.478431373 0 0 0 0 0.807843137 0 0 0 0.843804633 0" in="shadowInnerInner1"/></filter><linearGradient x1="8.219%" y1="52.842%" y2="50%" id="L"><stop stop-color="#529AFC" offset="0%"/><stop stop-color="#114BBC" offset="100%"/></linearGradient><linearGradient x1=".441%" y1="50%" y2="50%" id="M"><stop stop-color="#94CCFF" offset="0%"/><stop stop-color="#3C8DFF" offset="100%"/></linearGradient><linearGradient x1="0%" y1="53.135%" y2="50%" id="N"><stop stop-color="#92CBFF" offset="0%"/><stop stop-color="#3D8DFF" offset="100%"/></linearGradient><linearGradient x1="8.219%" y1="51.245%" y2="50%" id="O"><stop stop-color="#529AFC" offset="0%"/><stop stop-color="#114BBC" offset="100%"/></linearGradient><linearGradient x1="0%" y1="53.222%" y2="50%" id="Q"><stop stop-color="#FFF" offset="0%"/><stop stop-color="#81A2D4" offset="100%"/></linearGradient><path d="M143.67 24.979h52.039v30.344a4 4 0 0 1-1.839 4.431l-90.946 53.826a10 10 0 0 1-10.12.038L1.843 60.714A4.002 4.002 0 0 1 .042 56.05V24.98h51.723L91.93 1.79a10 10 0 0 1 9.856-.081l41.884 23.269z" id="P"/><linearGradient x1="0%" y1="50%" x2="99%" y2="50%" id="S"><stop stop-color="#E3EEFE" offset="0%"/><stop stop-color="#D0E2FF" offset="100%"/></linearGradient><linearGradient x1="0%" y1="53.141%" y2="50%" id="T"><stop stop-color="#92CBFF" offset="0%"/><stop stop-color="#3D8DFF" offset="100%"/></linearGradient><linearGradient x1="0%" y1="54.213%" y2="50%" id="U"><stop stop-color="#E3EFFE" offset="0%"/><stop stop-color="#ADC7EB" offset="100%"/></linearGradient><linearGradient x1="60.764%" y1="66.657%" x2="50%" y2="33.343%" id="V"><stop stop-color="#3D8EFF" offset="0%"/><stop stop-color="#92CBFF" offset="100%"/></linearGradient><linearGradient x1="16.792%" y1="55.843%" x2="85.07%" y2="46.152%" id="W"><stop stop-color="#FFBA76" offset="0%"/><stop stop-color="#FE6E3C" offset="100%"/></linearGradient><linearGradient x1="7.058%" y1="27.541%" x2="115.964%" y2="27.541%" id="X"><stop stop-color="#FFDC85" offset="0%"/><stop stop-color="#FFA76B" offset="19.55%"/><stop stop-color="#FF6D34" offset="37.677%"/><stop stop-color="#FF8F54" offset="58.09%"/><stop stop-color="#FF6421" offset="100%"/></linearGradient><linearGradient x1="87.565%" y1="50.055%" x2="-7.974%" y2="49.759%" id="Y"><stop stop-color="#99E7FF" offset="0%"/><stop stop-color="#0078FF" offset="100%"/></linearGradient><linearGradient x1="47.566%" y1="120.228%" x2="50.04%" y2="33.557%" id="Z"><stop stop-color="#0078FF" offset="0%"/><stop stop-color="#FFF" stop-opacity="0" offset="100%"/></linearGradient><linearGradient x1="50.438%" y1="100%" x2="48.25%" y2="10.969%" id="aa"><stop stop-color="#C4C4C4" offset="0%"/><stop stop-color="#EAEAEA" offset="100%"/></linearGradient><linearGradient x1="115.01%" y1="45.554%" x2="2.435%" y2="53.344%" id="ab"><stop stop-color="#00C6FB" offset=".54%"/><stop stop-color="#005BEA" offset="100%"/></linearGradient><linearGradient x1="50%" y1="-11.48%" x2="50%" y2="95.062%" id="ac"><stop stop-color="#FFF" offset="0%"/><stop stop-color="#DEDEDE" offset="100%"/></linearGradient><linearGradient x1="-51.544%" y1="5.73%" x2="100.954%" y2="71.713%" id="ad"><stop stop-color="#EDEDED" offset="0%"/><stop stop-color="#FFF" offset="100%"/></linearGradient><linearGradient x1="32.704%" y1="32.995%" x2="98.014%" y2="95.313%" id="ae"><stop stop-color="#FB6583" offset=".54%"/><stop stop-color="#FC7688" offset="13.02%"/><stop stop-color="#FDA797" offset="52.77%"/><stop stop-color="#FFC6A0" offset="83.02%"/><stop stop-color="#FFD1A3" offset="100%"/></linearGradient><linearGradient x1="32.352%" y1="33.034%" x2="95.748%" y2="89.7%" id="af"><stop stop-color="#FB6583" offset=".54%"/><stop stop-color="#FC7688" offset="13.02%"/><stop stop-color="#FDA797" offset="52.77%"/><stop stop-color="#FFC6A0" offset="83.02%"/><stop stop-color="#FFD1A3" offset="100%"/></linearGradient><linearGradient x1="17.284%" y1="23.572%" x2="92.208%" y2="80.956%" id="ag"><stop stop-color="#FB6583" offset=".54%"/><stop stop-color="#FC7688" offset="13.02%"/><stop stop-color="#FDA797" offset="52.77%"/><stop stop-color="#FFC6A0" offset="83.02%"/><stop stop-color="#FFD1A3" offset="100%"/></linearGradient><linearGradient x1="27.283%" y1="28.916%" x2="84.917%" y2="78.499%" id="ah"><stop stop-color="#FB6583" offset=".54%"/><stop stop-color="#FC7688" offset="13.02%"/><stop stop-color="#FDA797" offset="52.77%"/><stop stop-color="#FFC6A0" offset="83.02%"/><stop stop-color="#FFD1A3" offset="100%"/></linearGradient><linearGradient x1="24.79%" y1="25.892%" x2="74.734%" y2="71.923%" id="ai"><stop stop-color="#FB6583" offset=".54%"/><stop stop-color="#FC7688" offset="13.02%"/><stop stop-color="#FDA797" offset="52.77%"/><stop stop-color="#FFC6A0" offset="83.02%"/><stop stop-color="#FFD1A3" offset="100%"/></linearGradient><linearGradient x1="3.619%" y1="10.377%" x2="78.534%" y2="71.997%" id="aj"><stop stop-color="#FB6583" offset=".54%"/><stop stop-color="#FC7688" offset="13.02%"/><stop stop-color="#FDA797" offset="52.77%"/><stop stop-color="#FFC6A0" offset="83.02%"/><stop stop-color="#FFD1A3" offset="100%"/></linearGradient><linearGradient x1="2.166%" y1="9.173%" x2="143.37%" y2="125.338%" id="ak"><stop stop-color="#FB6583" offset=".54%"/><stop stop-color="#FC7688" offset="13.02%"/><stop stop-color="#FDA797" offset="52.77%"/><stop stop-color="#FFC6A0" offset="83.02%"/><stop stop-color="#FFD1A3" offset="100%"/></linearGradient><linearGradient x1="1.39%" y1="16.036%" x2="79.195%" y2="68.461%" id="al"><stop stop-color="#FB6583" offset=".54%"/><stop stop-color="#FC7688" offset="13.02%"/><stop stop-color="#FDA797" offset="52.77%"/><stop stop-color="#FFC6A0" offset="83.02%"/><stop stop-color="#FFD1A3" offset="100%"/></linearGradient><linearGradient x1="4.422%" y1="6.848%" x2="96.635%" y2="92.555%" id="am"><stop stop-color="#FB6583" offset=".54%"/><stop stop-color="#FC7688" offset="13.02%"/><stop stop-color="#FDA797" offset="52.77%"/><stop stop-color="#FFC6A0" offset="83.02%"/><stop stop-color="#FFD1A3" offset="100%"/></linearGradient><linearGradient x1="536.35%" y1="173.844%" x2="213.373%" y2="92.118%" id="an"><stop stop-color="#1E2275" offset="0%"/><stop stop-color="#0046BC" offset="100%"/></linearGradient><linearGradient x1="-55.414%" y1="7.02%" x2="202.715%" y2="102.852%" id="ao"><stop stop-color="#1E2275" offset="0%"/><stop stop-color="#0046BC" offset="100%"/></linearGradient><linearGradient x1="454.304%" y1="153.083%" x2="131.327%" y2="71.357%" id="ap"><stop stop-color="#1E2275" offset="0%"/><stop stop-color="#0046BC" offset="100%"/></linearGradient><linearGradient x1="-117.93%" y1="-16.188%" x2="140.199%" y2="79.641%" id="aq"><stop stop-color="#1E2275" offset="0%"/><stop stop-color="#0046BC" offset="100%"/></linearGradient><linearGradient x1="-33.332%" y1="90.138%" x2="102.127%" y2="24.554%" id="ar"><stop stop-color="#1E2275" offset="0%"/><stop stop-color="#0046BC" offset="100%"/></linearGradient><linearGradient x1="61.738%" y1="60.05%" x2="90.899%" y2="109.996%" id="as"><stop stop-color="#4C83FF" offset="0%"/><stop stop-color="#2AFADF" offset="100%"/></linearGradient><linearGradient x1="-116.451%" y1="399.941%" x2="124.055%" y2="-103.772%" id="at"><stop stop-color="#FB6583" offset=".54%"/><stop stop-color="#FC7688" offset="13.02%"/><stop stop-color="#FDA797" offset="52.77%"/><stop stop-color="#FFC6A0" offset="83.02%"/><stop stop-color="#FFD1A3" offset="100%"/></linearGradient><linearGradient x1="39.216%" y1="138.675%" x2="59.769%" y2="-8.346%" id="au"><stop stop-color="#FB6583" offset=".54%"/><stop stop-color="#FC7688" offset="13.02%"/><stop stop-color="#FDA797" offset="52.77%"/><stop stop-color="#FFC6A0" offset="83.02%"/><stop stop-color="#FFD1A3" offset="100%"/></linearGradient><linearGradient x1="50.138%" y1="114.805%" x2="49.549%" y2="-155.801%" id="av"><stop stop-color="#FB6583" offset=".54%"/><stop stop-color="#FC7688" offset="13.02%"/><stop stop-color="#FDA797" offset="52.77%"/><stop stop-color="#FFC6A0" offset="83.02%"/><stop stop-color="#FFD1A3" offset="100%"/></linearGradient><linearGradient x1="-.001%" y1="50%" x2="99.999%" y2="50%" id="aw"><stop stop-color="#FB6583" offset=".54%"/><stop stop-color="#FC7688" offset="13.02%"/><stop stop-color="#FDA797" offset="52.77%"/><stop stop-color="#FFC6A0" offset="83.02%"/><stop stop-color="#FFD1A3" offset="100%"/></linearGradient><linearGradient x1="128.561%" y1="157.51%" x2="10.893%" y2="4.177%" id="ax"><stop stop-color="#1E2275" offset="0%"/><stop stop-color="#0046BC" offset="100%"/></linearGradient><linearGradient x1="13.617%" y1="67.708%" x2="83.907%" y2="28.266%" id="ay"><stop stop-color="#CBCBCB" offset="0%"/><stop stop-color="#A8A8A8" offset="100%"/></linearGradient><linearGradient x1="87.565%" y1="50.054%" x2="-7.974%" y2="49.761%" id="az"><stop stop-color="#99E7FF" offset="0%"/><stop stop-color="#0078FF" offset="100%"/></linearGradient><linearGradient x1="49.909%" y1="100%" x2="49.909%" y2="33.557%" id="aA"><stop stop-color="#0078FF" offset="0%"/><stop stop-color="#FFF" stop-opacity="0" offset="100%"/></linearGradient><linearGradient x1="73.986%" y1="50.164%" x2="12.983%" y2="49.278%" id="aB"><stop stop-color="#99E7FF" offset="0%"/><stop stop-color="#0078FF" offset="100%"/></linearGradient><linearGradient x1="116.136%" y1="70.398%" x2="16.738%" y2="26.666%" id="aC"><stop stop-color="#FFF" offset="0%"/><stop stop-color="#DEDEDE" offset="100%"/></linearGradient><linearGradient x1="50%" y1="9.544%" x2="50%" y2="95.062%" id="aD"><stop stop-color="#FFF" offset="0%"/><stop stop-color="#DEDEDE" offset="100%"/></linearGradient><linearGradient x1="0%" y1="34.997%" x2="111.175%" y2="65.003%" id="aE"><stop stop-color="#C4C4C4" offset="0%"/><stop stop-color="#EAEAEA" offset="100%"/></linearGradient><linearGradient x1="42.88%" y1="88.537%" x2="60.295%" y2="20.574%" id="aF"><stop stop-color="#C4C4C4" offset="0%"/><stop stop-color="#EAEAEA" offset="100%"/></linearGradient><linearGradient x1="57.424%" y1="74.34%" x2="43.005%" y2="34.933%" id="aG"><stop stop-color="#C4C4C4" offset="0%"/><stop stop-color="#EAEAEA" offset="100%"/></linearGradient><linearGradient x1="78.71%" y1="50.164%" x2="5.692%" y2="49.278%" id="aH"><stop stop-color="#99E7FF" offset="0%"/><stop stop-color="#0078FF" offset="100%"/></linearGradient><linearGradient x1="81.213%" y1="152.747%" x2="49.482%" y2="48.125%" id="aI"><stop stop-color="#FFF" offset="0%"/><stop stop-color="#F4F4F4" offset="100%"/></linearGradient><linearGradient x1="49.999%" y1="-121.218%" x2="49.999%" y2="79.426%" id="aJ"><stop stop-color="#4C83FF" offset="0%"/><stop stop-color="#A1D1FF" offset="100%"/></linearGradient><linearGradient x1="7.529%" y1="60.145%" x2="203.022%" y2="-2.338%" id="aK"><stop stop-color="#4C83FF" offset="0%"/><stop stop-color="#A3D2FF" offset="100%"/></linearGradient><linearGradient x1="-84.793%" y1="50%" x2="15.201%" y2="50%" id="aL"><stop stop-color="#1E2275" offset="0%"/><stop stop-color="#0046BC" offset="100%"/></linearGradient><linearGradient x1="-18.658%" y1="57.646%" x2="97.72%" y2="40.824%" id="aM"><stop stop-color="#1E2275" offset="0%"/><stop stop-color="#0046BC" offset="100%"/></linearGradient><linearGradient x1="-139.657%" y1="53.297%" x2="76.101%" y2="49.652%" id="aN"><stop stop-color="#1E2275" offset="0%"/><stop stop-color="#0046BC" offset="100%"/></linearGradient><linearGradient x1=".639%" y1="53.517%" x2="58.828%" y2="47.462%" id="aO"><stop stop-color="#1E2275" offset="0%"/><stop stop-color="#0046BC" offset="100%"/></linearGradient><linearGradient x1="55.968%" y1="59.272%" x2="42.018%" y2="37.414%" id="aP"><stop stop-color="#1E2275" offset="0%"/><stop stop-color="#0046BC" offset="100%"/></linearGradient><linearGradient x1="83.69%" y1="50.003%" x2="183.691%" y2="50.003%" id="aQ"><stop stop-color="#4C83FF" offset="0%"/><stop stop-color="#2AFADF" offset="100%"/></linearGradient><linearGradient x1="45.46%" y1="146.545%" x2="51.583%" y2="55.388%" id="aR"><stop stop-color="#4C83FF" offset="0%"/><stop stop-color="#C2DDFF" offset="100%"/></linearGradient><linearGradient x1="50.169%" y1="71.932%" x2="51.441%" y2="171.326%" id="aS"><stop stop-color="#4C83FF" offset="0%"/><stop stop-color="#2AFADF" offset="100%"/></linearGradient><linearGradient x1="39.881%" y1="82.44%" x2="47.982%" y2="51.94%" id="aT"><stop stop-color="#4C83FF" offset="0%"/><stop stop-color="#AAD0FF" offset="100%"/></linearGradient><linearGradient x1="7.491%" y1="100.275%" x2="62.797%" y2="19.971%" id="aU"><stop stop-color="#1E2275" offset="0%"/><stop stop-color="#0046BC" offset="100%"/></linearGradient><linearGradient x1="55.589%" y1="72.549%" x2="15.098%" y2="-114.343%" id="aV"><stop stop-color="#1E2275" offset="0%"/><stop stop-color="#0046BC" offset="100%"/></linearGradient><linearGradient x1="13.37%" y1="0%" x2="87.63%" y2="78.842%" id="aW"><stop stop-color="#FFDC85" offset="0%"/><stop stop-color="#FFA76B" offset="32.254%"/><stop stop-color="#FF6D34" offset="37.677%"/><stop stop-color="#FFC485" offset="74.862%"/><stop stop-color="#FF632C" offset="85.651%"/><stop stop-color="#FF6421" offset="100%"/></linearGradient><linearGradient x1="27.552%" y1="70.848%" x2="73.707%" y2="36.269%" id="aX"><stop stop-color="#FFBA76" offset="0%"/><stop stop-color="#FE6E3C" offset="100%"/></linearGradient><linearGradient x1="41.987%" y1="108.187%" x2="41.987%" y2="0%" id="aY"><stop stop-color="#3158D3" offset="0%"/><stop stop-color="#5C90FF" offset="100%"/></linearGradient><linearGradient x1="41.987%" y1="108.187%" x2="41.987%" y2="0%" id="aZ"><stop stop-color="#3158D3" offset="0%"/><stop stop-color="#5C90FF" offset="100%"/></linearGradient><linearGradient x1="41.987%" y1="260.027%" x2="41.987%" y2="0%" id="ba"><stop stop-color="#3158D3" offset="0%"/><stop stop-color="#79A6FF" offset="100%"/></linearGradient><linearGradient x1="49.856%" y1="15.107%" x2="50.569%" y2="75.702%" id="bb"><stop stop-color="#8CB0FD" offset="0%"/><stop stop-color="#A0BDFD" offset="100%"/></linearGradient><linearGradient x1="50%" y1="0%" x2="50%" y2="100%" id="bc"><stop stop-color="#FFAD00" offset="0%"/><stop stop-color="#FF8C00" offset="100%"/></linearGradient><linearGradient x1="50%" y1="0%" x2="50%" y2="100%" id="bd"><stop stop-color="#FFAD00" offset="0%"/><stop stop-color="#FF8C00" offset="100%"/></linearGradient><linearGradient x1="50%" y1="0%" x2="50%" y2="100%" id="be"><stop stop-color="#FEE678" offset="0%"/><stop stop-color="#FFB800" offset="100%"/></linearGradient><linearGradient x1="50%" y1="0%" x2="50%" y2="100%" id="bf"><stop stop-color="#00B969" offset="0%"/><stop stop-color="#00A655" offset="100%"/></linearGradient><linearGradient x1="50%" y1="0%" x2="50%" y2="100%" id="bg"><stop stop-color="#00B969" offset="0%"/><stop stop-color="#00A655" offset="100%"/></linearGradient><linearGradient x1="50%" y1="0%" x2="50%" y2="100%" id="bh"><stop stop-color="#00EC94" offset="0%"/><stop stop-color="#00D898" offset="100%"/></linearGradient><linearGradient x1="11.925%" y1="42.245%" y2="51.675%" id="bi"><stop stop-color="#8993FF" offset="0%"/><stop stop-color="#C8CFFE" offset="100%"/></linearGradient><linearGradient x1="5.053%" y1="44.29%" x2="95.969%" y2="53.54%" id="bj"><stop stop-color="#5F6CF4" offset="0%"/><stop stop-color="#1722A6" offset="100%"/></linearGradient></defs><g fill="none" fill-rule="evenodd"><path d="M354.77 61.983L40.403 244.585l412.194 238.802 315.405-186.753L354.77 61.984z" stroke="url(#a)" transform="translate(0 -11)"/><g transform="translate(528.14 321.3)" stroke="url(#b)" stroke-linecap="round" stroke-linejoin="round" stroke-width="4"><path d="M12.49 0l32.028 18.47M0 7.286l32.029 18.469"/></g><path d="M115.14 53.754h35.774v21.795a4 4 0 0 1-1.829 4.584L83.05 118.505a10 10 0 0 1-9.998.03L6.012 80.097A4.002 4.002 0 0 1 4.163 75.5V53.754h35.242l32.623-18.957a10 10 0 0 1 9.998-.029l33.114 18.986z" fill="url(#c)" transform="translate(125.793 63.263)"/><g transform="rotate(-24 414.878 -277.385)" fill-rule="nonzero"><path d="M4.163 9.173c-1.505-.576-2.602-2.368-2.602-4.49C1.561 2.563 2.658.77 4.163.195V0h1.04c2.013 0 3.644 2.097 3.644 4.684 0 2.586-1.631 4.683-3.643 4.683h-1.04v-.194z" fill="url(#d)"/><ellipse fill="url(#e)" cx="3.643" cy="4.684" rx="3.643" ry="4.684"/></g><g transform="rotate(-24 448.728 -316.25)" fill-rule="nonzero"><path d="M4.163 9.173c-1.505-.576-2.602-2.368-2.602-4.49C1.561 2.563 2.658.77 4.163.195V0h1.04c2.013 0 3.644 2.097 3.644 4.684 0 2.586-1.631 4.683-3.643 4.683h-1.04v-.194z" fill="url(#d)"/><ellipse fill="url(#e)" cx="3.643" cy="4.684" rx="3.643" ry="4.684"/></g><path d="M82.026 11.87l67.04 38.437a4 4 0 0 1 .02 6.929L83.05 95.608a10 10 0 0 1-9.998.029L6.012 57.2a4 4 0 0 1-.02-6.929L72.028 11.9a10 10 0 0 1 9.998-.03z" fill="url(#f)" transform="translate(125.793 63.263)"/><path d="M101.175 34H133v18.854a2.998 2.998 0 0 1-1.12 4.028L82.21 85.904a7.5 7.5 0 0 1-7.53.022l-50.426-29.07A3 3 0 0 1 23 53.06V34h31.475L73.91 22.645a7.5 7.5 0 0 1 7.529-.022L101.175 34z" fill="url(#g)" fill-rule="nonzero" transform="translate(125.793 63.263)"/><path d="M81.439 2.623l50.426 29.07a3 3 0 0 1 .015 5.189L82.21 65.904a7.5 7.5 0 0 1-7.53.022l-50.426-29.07a3 3 0 0 1-.015-5.19L73.91 2.646a7.5 7.5 0 0 1 7.529-.022z" fill="url(#h)" fill-rule="nonzero" transform="translate(125.793 63.263)"/><g transform="translate(125.793 63.263)"><use fill="#00FFFC" xlink:href="#i"/><use fill="#000" filter="url(#j)" xlink:href="#i"/></g><g transform="matrix(-1 0 0 1 619.127 81.793)"><path d="M115.14 67.488h35.774v21.795a4 4 0 0 1-1.829 4.584L83.05 132.24a10 10 0 0 1-9.998.03L6.012 93.831a4.002 4.002 0 0 1-1.849-4.599V67.488h35.242l32.623-18.957a10 10 0 0 1 9.998-.029l33.114 18.986z" fill="url(#k)"/><g transform="rotate(-24 235.474 -6.244)" fill-rule="nonzero"><path d="M4.163 9.173c-1.505-.576-2.602-2.368-2.602-4.49C1.561 2.563 2.658.77 4.163.195V0h1.04c2.013 0 3.644 2.097 3.644 4.684 0 2.586-1.631 4.683-3.643 4.683h-1.04v-.194z" fill="url(#d)"/><ellipse fill="url(#e)" cx="3.643" cy="4.684" rx="3.643" ry="4.684"/></g><g transform="rotate(-24 269.324 -45.108)" fill-rule="nonzero"><path d="M4.163 9.173c-1.505-.576-2.602-2.368-2.602-4.49C1.561 2.563 2.658.77 4.163.195V0h1.04c2.013 0 3.644 2.097 3.644 4.684 0 2.586-1.631 4.683-3.643 4.683h-1.04v-.194z" fill="url(#d)"/><ellipse fill="url(#e)" cx="3.643" cy="4.684" rx="3.643" ry="4.684"/></g><path d="M82.026 25.605l67.04 38.436a4 4 0 0 1 .02 6.929L83.05 109.342a10 10 0 0 1-9.998.029L6.012 70.935a4 4 0 0 1-.02-6.929l66.036-38.372a10 10 0 0 1 9.998-.029z" fill="url(#l)" fill-rule="nonzero"/><path d="M81.439 35.357l50.426 29.07a3 3 0 0 1 .015 5.19L82.21 98.637a7.5 7.5 0 0 1-7.53.022L24.253 69.59a3 3 0 0 1-.015-5.19L73.91 35.38a7.5 7.5 0 0 1 7.529-.022z" stroke="#FFF" opacity=".3"/><path d="M84.123 43h37.504v23c-.003.412-.107.83-.327 1.213a2.4 2.4 0 0 1-.868.873L80.82 91.242a6 6 0 0 1-6.026.017L34.58 68.065a2.401 2.401 0 0 1-1.153-2.556V43h36.918l3.835-2.242a6 6 0 0 1 6.026-.017L84.123 43z" fill="url(#m)"/><path d="M80.206 17.74l40.214 23.195a2.4 2.4 0 0 1 .012 4.15L80.82 68.243a6 6 0 0 1-6.026.017L34.58 45.065a2.4 2.4 0 0 1-.012-4.15L74.18 17.757a6 6 0 0 1 6.026-.017z" fill="url(#n)"/><path d="M81.244 13.087l48.457 27.935a2.88 2.88 0 0 1 .014 4.981L81.984 73.892a7.2 7.2 0 0 1-7.228.021L26.299 45.978a2.88 2.88 0 0 1-.014-4.981l47.731-27.889a7.2 7.2 0 0 1 7.228-.021z" stroke="#00FFFB" stroke-width=".96"/><path d="M79.167 22.394l31.971 18.454a1.92 1.92 0 0 1 .01 3.32L79.656 62.592a4.8 4.8 0 0 1-4.823.014L42.862 44.152a1.92 1.92 0 0 1-.01-3.32l31.492-18.424a4.8 4.8 0 0 1 4.823-.014z" fill="#00FFFC"/><path d="M112.098 42.58a1.92 1.92 0 0 1-.95 1.589L79.656 62.591a4.8 4.8 0 0 1-4.823.014L42.862 44.152a1.918 1.918 0 0 1-.958-1.566L32 0h90l-9.902 42.58z" fill="url(#o)"/><path d="M102 35.574l9.138 5.274a1.92 1.92 0 0 1 .01 3.32L79.656 62.592a4.8 4.8 0 0 1-4.823.014L42.862 44.152a1.92 1.92 0 0 1-.01-3.32L52 35.48V0h50v35.574z" fill="url(#p)"/><ellipse fill="#2CD8E4" cx="77" cy="43.5" rx="12" ry="5.5"/></g><g transform="translate(231.954 144.077)"><ellipse fill="url(#q)" fill-rule="nonzero" transform="rotate(30 18.214 5.204)" cx="18.214" cy="5.204" rx="2.602" ry="4.163"/><path d="M19.207 5.436L58.304 28.28" stroke="url(#r)" stroke-width="4" stroke-linecap="round" stroke-linejoin="round"/><ellipse fill="url(#q)" fill-rule="nonzero" transform="rotate(30 4.684 12.49)" cx="4.684" cy="12.489" rx="2.602" ry="4.163"/><path d="M5.677 12.721l39.097 22.846" stroke="url(#r)" stroke-width="4" stroke-linecap="round" stroke-linejoin="round"/></g><g fill-rule="nonzero"><path d="M115.14 44.754h35.774v21.795a4 4 0 0 1-1.829 4.584L83.05 109.505a10 10 0 0 1-9.998.03L6.012 71.097A4.002 4.002 0 0 1 4.163 66.5V44.754h35.242l32.623-18.957a10 10 0 0 1 9.998-.029l33.114 18.986z" fill="url(#s)" transform="translate(526.496 317.889)"/><g transform="rotate(-24 1193.02 -1097.152)"><path d="M4.163 9.173c-1.505-.576-2.602-2.368-2.602-4.49C1.561 2.563 2.658.77 4.163.195V0h1.04c2.013 0 3.644 2.097 3.644 4.684 0 2.586-1.631 4.683-3.643 4.683h-1.04v-.194z" fill="url(#d)"/><ellipse fill="url(#e)" cx="3.643" cy="4.684" rx="3.643" ry="4.684"/></g><g transform="rotate(-24 1226.869 -1136.017)"><path d="M4.163 9.173c-1.505-.576-2.602-2.368-2.602-4.49C1.561 2.563 2.658.77 4.163.195V0h1.04c2.013 0 3.644 2.097 3.644 4.684 0 2.586-1.631 4.683-3.643 4.683h-1.04v-.194z" fill="url(#d)"/><ellipse fill="url(#e)" cx="3.643" cy="4.684" rx="3.643" ry="4.684"/></g><path d="M82.026 2.87l67.04 38.437a4 4 0 0 1 .02 6.929L83.05 86.608a10 10 0 0 1-9.998.029L6.012 48.2a4 4 0 0 1-.02-6.929L72.028 2.9a10 10 0 0 1 9.998-.03z" fill="url(#t)" transform="translate(526.496 317.889)"/></g><g opacity=".2" transform="translate(562.924 335.582)"><ellipse stroke="url(#u)" stroke-width="4" cx="26.54" cy="14.051" rx="26.54" ry="14.051"/><path d="M41.776 25.557c6.836-2.542 11.304-6.748 11.304-11.506" stroke="url(#v)" stroke-width="6"/><path d="M53.08 14.05C53.08 6.29 41.198 0 26.54 0" stroke="url(#w)" stroke-width="6"/></g><g transform="translate(562.924 324.134)"><ellipse stroke="#00FFFB" stroke-width="4" cx="26.54" cy="14.051" rx="26.54" ry="14.051"/><path d="M41.776 25.557c6.836-2.542 11.304-6.748 11.304-11.506" stroke="url(#v)" stroke-width="6"/><path d="M53.08 14.05C53.08 6.29 41.198 0 26.54 0" stroke="url(#w)" stroke-width="6"/></g><g opacity=".2" fill-rule="nonzero"><path fill="url(#x)" d="M0 23.469l3.322 2.272L42.508 2.194 39.177 0zM5.204 26.591l3.322 2.272L47.712 5.316 44.38 3.122z" transform="translate(604.912 352.062)"/><path fill="url(#y)" d="M10.408 29.714l3.322 2.272L36.315 18.31l-3.33-2.193z" transform="translate(604.912 352.062)"/></g><g fill-rule="nonzero"><path fill="url(#x)" d="M0 23.469l3.322 2.272L42.508 2.194 39.177 0zM5.204 26.591l3.322 2.272L47.712 5.316 44.38 3.122z" transform="translate(604.912 340.613)"/><path fill="url(#y)" d="M10.408 29.714l3.322 2.272L36.315 18.31l-3.33-2.193z" transform="translate(604.912 340.613)"/></g><g transform="translate(632.657 389.703)"><ellipse fill="url(#q)" fill-rule="nonzero" transform="rotate(30 18.214 5.204)" cx="18.214" cy="5.204" rx="2.602" ry="4.163"/><path d="M19.207 5.436L58.304 28.28" stroke="url(#r)" stroke-width="4" stroke-linecap="round" stroke-linejoin="round"/><ellipse fill="url(#q)" fill-rule="nonzero" transform="rotate(30 4.684 12.49)" cx="4.684" cy="12.489" rx="2.602" ry="4.163"/><path d="M5.677 12.721l39.097 22.846" stroke="url(#z)" stroke-width="4" stroke-linecap="round" stroke-linejoin="round"/></g><g transform="translate(269.422 174.26)"><ellipse fill="url(#q)" fill-rule="nonzero" transform="rotate(-20 227.412 5.204)" cx="227.412" cy="5.204" rx="2.602" ry="4.163"/><path d="M0 123.47L226.518 5.205" stroke="url(#A)" stroke-width="4" stroke-linecap="round" stroke-linejoin="round"/><ellipse fill="url(#q)" fill-rule="nonzero" transform="rotate(-20 238.86 12.49)" cx="238.861" cy="12.489" rx="2.602" ry="4.163"/><path d="M11.449 130.756L237.967 12.49" stroke="url(#A)" stroke-width="4" stroke-linecap="round" stroke-linejoin="round"/></g><g fill-rule="nonzero"><path d="M115.14 44.754h35.774v21.795a4 4 0 0 1-1.829 4.584L83.05 109.505a10 10 0 0 1-9.998.03L6.012 71.097A4.002 4.002 0 0 1 4.163 66.5V44.754h35.242l32.623-18.957a10 10 0 0 1 9.998-.029l33.114 18.986z" fill="url(#B)" transform="matrix(-1 0 0 1 313.135 277.298)"/><g transform="scale(-1 1) rotate(-24 677.721 857.63)"><path d="M4.163 9.173c-1.505-.576-2.602-2.368-2.602-4.49C1.561 2.563 2.658.77 4.163.195V0h1.04c2.013 0 3.644 2.097 3.644 4.684 0 2.586-1.631 4.683-3.643 4.683h-1.04v-.194z" fill="url(#d)"/><ellipse fill="url(#e)" cx="3.643" cy="4.684" rx="3.643" ry="4.684"/></g><g transform="scale(-1 1) rotate(-24 711.57 818.766)"><path d="M4.163 9.173c-1.505-.576-2.602-2.368-2.602-4.49C1.561 2.563 2.658.77 4.163.195V0h1.04c2.013 0 3.644 2.097 3.644 4.684 0 2.586-1.631 4.683-3.643 4.683h-1.04v-.194z" fill="url(#d)"/><ellipse fill="url(#e)" cx="3.643" cy="4.684" rx="3.643" ry="4.684"/></g><path d="M82.026 2.87l67.04 38.437a4 4 0 0 1 .02 6.929L83.05 86.608a10 10 0 0 1-9.998.029L6.012 48.2a4 4 0 0 1-.02-6.929L72.028 2.9a10 10 0 0 1 9.998-.03z" fill="url(#C)" transform="matrix(-1 0 0 1 313.135 277.298)"/></g><g transform="matrix(-1 0 0 1 435.948 373.05)"><path d="M86.548 33.46h26.89v16.355a3 3 0 0 1-1.395 3.38l-49.64 28.691a7.5 7.5 0 0 1-7.468.022L4.539 53.168a3.001 3.001 0 0 1-1.41-3.391V33.46h26.49l24.546-14.187a7.5 7.5 0 0 1 7.468-.021L86.548 33.46z" fill="url(#D)" fill-rule="nonzero"/><path d="M61.633 2.133l50.396 28.74a3 3 0 0 1 .015 5.203l-49.64 28.691a7.5 7.5 0 0 1-7.47.022L4.54 36.049a3 3 0 0 1-.015-5.203l49.64-28.691a7.5 7.5 0 0 1 7.47-.022z" fill="url(#E)" fill-rule="nonzero"/><ellipse fill="#BDCEE8" cx="58.948" cy="32.449" rx="12" ry="5.5"/><path d="M60.046 11.218a4.125 4.125 0 0 0-4.094.011l-37.22 21.413a.75.75 0 0 0 .004 1.302l37.786 21.449a4.125 4.125 0 0 0 4.094-.012l37.22-21.413a.75.75 0 0 0-.003-1.302L60.046 11.218z" stroke="#00FFFB" stroke-width="3"/></g><g transform="translate(76 126)"><path d="M.022 67.385H0V62.57h3.201c1.784-.995 4.174-1.604 6.799-1.604s5.015.609 6.799 1.604H20v4.814h-.022C19.635 70.52 15.298 73 10 73 4.701 73 .365 70.52.022 67.385z" fill="url(#F)"/><ellipse fill="url(#G)" cx="10" cy="62.17" rx="10" ry="6.016"/><ellipse fill="#00FFFC" cx="10" cy="62.17" rx="8.4" ry="4.412"/><path fill="url(#H)" d="M1.6 0h16.8v62.571H1.6z"/><path fill="url(#I)" d="M5.6 0h8.8v62.571H5.6z"/><path fill="#00FFFC" d="M12 40.912h1v1h-1zM12 44.923h1.6v1.604H12zM14.4 48.132H16v1.604h-1.6zM11.2 52.143h2.4v2.407h-2.4z"/></g><path d="M86.548 33.704h26.89v16.354a3 3 0 0 1-1.395 3.38L62.404 82.13a7.5 7.5 0 0 1-7.468.021L4.539 53.412a3.001 3.001 0 0 1-1.41-3.392V33.704h26.49l24.546-14.186a7.5 7.5 0 0 1 7.468-.022l24.915 14.208z" fill="url(#D)" fill-rule="nonzero" transform="matrix(-1 0 0 1 145.568 189.629)"/><path d="M61.633 2.376l50.396 28.74a3 3 0 0 1 .015 5.203L62.404 65.01a7.5 7.5 0 0 1-7.47.022L4.54 36.292a3 3 0 0 1-.015-5.203l49.64-28.691a7.5 7.5 0 0 1 7.47-.022z" fill="url(#E)" fill-rule="nonzero" transform="matrix(-1 0 0 1 145.568 189.629)"/><g transform="matrix(-1 0 0 1 145.568 189.629)"><use fill="#00FFFC" xlink:href="#J"/><use fill="#000" filter="url(#K)" xlink:href="#J"/></g><g transform="translate(0 174)"><path d="M.022 67.385H0V62.57h3.201c1.784-.995 4.174-1.604 6.799-1.604s5.015.609 6.799 1.604H20v4.814h-.022C19.635 70.52 15.298 73 10 73 4.701 73 .365 70.52.022 67.385z" fill="url(#F)"/><ellipse fill="url(#G)" cx="10" cy="62.17" rx="10" ry="6.016"/><ellipse fill="#00FFFC" cx="10" cy="62.17" rx="8.4" ry="4.412"/><path fill="url(#H)" d="M1.6 0h16.8v62.571H1.6z"/><path fill="url(#I)" d="M5.6 0h8.8v62.571H5.6z"/><path fill="#00FFFC" d="M12 40.912h1v1h-1zM12 44.923h1.6v1.604H12zM14.4 48.132H16v1.604h-1.6zM11.2 52.143h2.4v2.407h-2.4z"/></g><g transform="translate(76 224)"><path d="M.022 67.385H0V62.57h3.201c1.784-.995 4.174-1.604 6.799-1.604s5.015.609 6.799 1.604H20v4.814h-.022C19.635 70.52 15.298 73 10 73 4.701 73 .365 70.52.022 67.385z" fill="url(#F)"/><ellipse fill="url(#G)" cx="10" cy="62.17" rx="10" ry="6.016"/><ellipse fill="#00FFFC" cx="10" cy="62.17" rx="8.4" ry="4.412"/><path fill="url(#H)" d="M1.6 0h16.8v62.571H1.6z"/><path fill="url(#I)" d="M5.6 0h8.8v62.571H5.6z"/><path fill="#00FFFC" d="M12 40.912h1v1h-1zM12 44.923h1.6v1.604H12zM14.4 48.132H16v1.604h-1.6zM11.2 52.143h2.4v2.407h-2.4z"/></g><g transform="translate(156 175)"><path d="M.022 67.385H0V62.57h3.201c1.784-.995 4.174-1.604 6.799-1.604s5.015.609 6.799 1.604H20v4.814h-.022C19.635 70.52 15.298 73 10 73 4.701 73 .365 70.52.022 67.385z" fill="url(#F)"/><ellipse fill="url(#G)" cx="10" cy="62.17" rx="10" ry="6.016"/><ellipse fill="#00FFFC" cx="10" cy="62.17" rx="8.4" ry="4.412"/><path fill="url(#H)" d="M1.6 0h16.8v62.571H1.6z"/><path fill="url(#I)" d="M5.6 0h8.8v62.571H5.6z"/><path fill="#00FFFC" d="M12 40.912h1v1h-1zM12 44.923h1.6v1.604H12zM14.4 48.132H16v1.604h-1.6zM11.2 52.143h2.4v2.407h-2.4z"/></g><g><path d="M64.911 25.096H85.08V37.36a2.243 2.243 0 0 1-1.046 2.535l-37.23 21.519a5.625 5.625 0 0 1-5.602.016L3.404 39.877a2.25 2.25 0 0 1-1.057-2.544V25.096h19.868l18.409-10.64a5.625 5.625 0 0 1 5.601-.017l18.686 10.657z" fill="url(#L)" transform="matrix(-1 0 0 1 711.757 200.28)"/><path d="M46.225 1.6l37.797 21.554a2.25 2.25 0 0 1 .011 3.903l-37.23 21.518a5.625 5.625 0 0 1-5.602.016L3.404 27.037a2.25 2.25 0 0 1-.01-3.902l37.23-21.519a5.625 5.625 0 0 1 5.601-.016z" fill="url(#M)" transform="matrix(-1 0 0 1 711.757 200.28)"/><path d="M666.908 209.02a2.719 2.719 0 0 1 2.697.007l27.916 16.06a.188.188 0 0 1-.001.325l-28.34 16.086a2.719 2.719 0 0 1-2.698-.007l-27.916-16.06a.188.188 0 0 1 .001-.325l28.34-16.087z" stroke="#00FFFB" stroke-width="3"/></g><g><path fill="url(#N)" fill-rule="nonzero" d="M0 82.158L142.876 0l257.827 147.792-144.67 83.263z" transform="translate(205.934 132.629)"/><path d="M256.034 231.055l144.67-83.263v6.245L256.033 237.3 0 88.467v-6.245l256.034 148.833z" fill="url(#O)" transform="translate(205.934 132.629)"/></g><g><path d="M376.605 158.82l110.485 61.273a4.8 4.8 0 0 1 .114 8.33l-109.231 64.532a12 12 0 0 1-12.13.046l-109.245-63.428a4.8 4.8 0 0 1 .014-8.31l108.182-62.345a12 12 0 0 1 11.811-.097z" stroke="#FFF" stroke-width="2" opacity=".2"/><g transform="translate(273.544 168.015)"><mask id="R" fill="#fff"><use xlink:href="#P"/></mask><use fill="url(#Q)" fill-rule="nonzero" xlink:href="#P"/><path d="M196.676 42.016c-.36.646-2.415 1.895-3.05 2.272L103.13 97.846a10.408 10.408 0 0 1-10.534.04L-1 43.735" stroke="#00FFFB" stroke-width="2" mask="url(#R)"/></g><path d="M125.908 138.971l91.99 51.106a4 4 0 0 1 .095 6.94l-90.947 53.825a10 10 0 0 1-10.12.038l-90.96-52.905a4 4 0 0 1 .012-6.921l90.073-52.001a10 10 0 0 1 9.857-.082z" fill="url(#S)" fill-rule="nonzero" transform="translate(249.422 -.47)"/><path d="M370.392 152.832l-65.941 38.079 66.954 39.056 65.942-39.008-66.955-38.127z" stroke="#00FFFB" stroke-width="8"/><path d="M370.38 116.797l-72.902 42.098 73.94 43.131 72.901-43.125-73.939-42.104z" stroke="#00FFFB"/><path d="M444.422 190.385l.893.508-.893.528v.11h-.184l-72.819 43.075-73.844-43.076h-.153v-.089l-.94-.548.94-.542v-65.82h147v65.854z" fill="#00FFFC" opacity=".2"/><path d="M188.124 118.935h6.728v5.143a4 4 0 0 1-1.829 4.584l-66.035 38.372a10 10 0 0 1-9.998.029l-67.04-38.436a4.002 4.002 0 0 1-1.849-4.599v-5.093h6.584l61.28-35.609a10 10 0 0 1 9.999-.029l62.16 35.638z" fill="url(#c)" transform="translate(249.422 -.47)"/><path d="M125.964 77.052l67.04 38.436a4 4 0 0 1 .02 6.93l-66.036 38.371a10 10 0 0 1-9.998.03l-67.04-38.437a4 4 0 0 1-.02-6.928l66.036-38.373a10 10 0 0 1 9.998-.029z" fill="url(#T)" fill-rule="nonzero" transform="translate(249.422 -.47)"/><path d="M167.016 104.364h17.428v14.571l-57.49 33.536a10 10 0 0 1-9.954.07l-59.532-33.606v-14.57h17.428l39.646-33.147a10 10 0 0 1 12.829 0l39.645 33.146z" fill="url(#U)" fill-rule="nonzero" transform="translate(249.422 -.47)"/><path d="M188.124 93.956h6.728V99.1a4 4 0 0 1-1.829 4.584l-66.035 38.372a10 10 0 0 1-9.998.03l-67.04-38.437a4.002 4.002 0 0 1-1.849-4.599v-5.093h6.584l61.28-35.609a10 10 0 0 1 9.999-.029l62.16 35.638z" fill="url(#c)" transform="translate(249.422 -.47)"/><path d="M125.964 52.073l67.04 38.437a4 4 0 0 1 .02 6.928l-66.036 38.372a10 10 0 0 1-9.998.03L49.95 97.402a4 4 0 0 1-.02-6.928l66.036-38.373a10 10 0 0 1 9.998-.029z" fill="url(#V)" fill-rule="nonzero" transform="translate(249.422 -.47)"/><path d="M374.799 62.355l50.426 29.07a3 3 0 0 1 .015 5.19l-49.671 29.022a7.5 7.5 0 0 1-7.53.022l-50.426-29.07a3 3 0 0 1-.015-5.19l49.672-29.022a7.5 7.5 0 0 1 7.529-.022z" stroke="#FFF" opacity=".6"/><g transform="translate(309.422 27.53)"><path d="M.022 67.385H0V62.57h3.201c1.784-.995 4.174-1.604 6.799-1.604s5.015.609 6.799 1.604H20v4.814h-.022C19.635 70.52 15.298 73 10 73 4.701 73 .365 70.52.022 67.385z" fill="url(#F)"/><ellipse fill="url(#G)" cx="10" cy="62.17" rx="10" ry="6.016"/><ellipse fill="#00FFFC" cx="10" cy="62.17" rx="8.4" ry="4.412"/><path fill="url(#H)" d="M1.6 0h16.8v62.571H1.6z"/><path fill="url(#I)" d="M5.6 0h8.8v62.571H5.6z"/><path fill="#00FFFC" d="M12 40.912h1v1h-1zM12 44.923h1.6v1.604H12zM14.4 48.132H16v1.604h-1.6zM11.2 52.143h2.4v2.407h-2.4z"/></g><g transform="translate(361.422 57.53)"><path d="M.022 67.385H0V62.57h3.201c1.784-.995 4.174-1.604 6.799-1.604s5.015.609 6.799 1.604H20v4.814h-.022C19.635 70.52 15.298 73 10 73 4.701 73 .365 70.52.022 67.385z" fill="url(#F)"/><ellipse fill="url(#G)" cx="10" cy="62.17" rx="10" ry="6.016"/><ellipse fill="#00FFFC" cx="10" cy="62.17" rx="8.4" ry="4.412"/><path fill="url(#H)" d="M1.6 0h16.8v62.571H1.6z"/><path fill="url(#I)" d="M5.6 0h8.8v62.571H5.6z"/><path fill="#00FFFC" d="M12 40.912h1v1h-1zM12 44.923h1.6v1.604H12zM14.4 48.132H16v1.604h-1.6zM11.2 52.143h2.4v2.407h-2.4z"/></g><g transform="translate(361.422 -.47)"><path d="M.022 67.385H0V62.57h3.201c1.784-.995 4.174-1.604 6.799-1.604s5.015.609 6.799 1.604H20v4.814h-.022C19.635 70.52 15.298 73 10 73 4.701 73 .365 70.52.022 67.385z" fill="url(#F)"/><ellipse fill="url(#G)" cx="10" cy="62.17" rx="10" ry="6.016"/><ellipse fill="#00FFFC" cx="10" cy="62.17" rx="8.4" ry="4.412"/><path fill="url(#H)" d="M1.6 0h16.8v62.571H1.6z"/><path fill="url(#I)" d="M5.6 0h8.8v62.571H5.6z"/><path fill="#00FFFC" d="M12 40.912h1v1h-1zM12 44.923h1.6v1.604H12zM14.4 48.132H16v1.604h-1.6zM11.2 52.143h2.4v2.407h-2.4z"/></g><g transform="translate(412.422 28.53)"><path d="M.022 67.385H0V62.57h3.201c1.784-.995 4.174-1.604 6.799-1.604s5.015.609 6.799 1.604H20v4.814h-.022C19.635 70.52 15.298 73 10 73 4.701 73 .365 70.52.022 67.385z" fill="url(#F)"/><ellipse fill="url(#G)" cx="10" cy="62.17" rx="10" ry="6.016"/><ellipse fill="#00FFFC" cx="10" cy="62.17" rx="8.4" ry="4.412"/><path fill="url(#H)" d="M1.6 0h16.8v62.571H1.6z"/><path fill="url(#I)" d="M5.6 0h8.8v62.571H5.6z"/><path fill="#00FFFC" d="M12 40.912h1v1h-1zM12 44.923h1.6v1.604H12zM14.4 48.132H16v1.604h-1.6zM11.2 52.143h2.4v2.407h-2.4z"/></g><g transform="rotate(-24 694.312 -598.132)" fill-rule="nonzero"><path d="M4.163 9.173c-1.505-.576-2.602-2.368-2.602-4.49C1.561 2.563 2.658.77 4.163.195V0h1.04c2.013 0 3.644 2.097 3.644 4.684 0 2.586-1.631 4.683-3.643 4.683h-1.04v-.194z" fill="url(#d)"/><ellipse fill="url(#e)" cx="3.643" cy="4.684" rx="3.643" ry="4.684"/></g><g transform="rotate(-24 733.579 -638.404)" fill-rule="nonzero"><path d="M4.163 9.173c-1.505-.576-2.602-2.368-2.602-4.49C1.561 2.563 2.658.77 4.163.195V0h1.04c2.013 0 3.644 2.097 3.644 4.684 0 2.586-1.631 4.683-3.643 4.683h-1.04v-.194z" fill="url(#d)"/><ellipse fill="url(#e)" cx="3.643" cy="4.684" rx="3.643" ry="4.684"/></g><g fill-rule="nonzero"><g transform="scale(-1 1) rotate(-24 320.445 1148.737)"><path d="M4.163 9.173c-1.505-.576-2.602-2.368-2.602-4.49C1.561 2.563 2.658.77 4.163.195V0h1.04c2.013 0 3.644 2.097 3.644 4.684 0 2.586-1.631 4.683-3.643 4.683h-1.04v-.194z" fill="url(#d)"/><ellipse fill="url(#e)" cx="3.643" cy="4.684" rx="3.643" ry="4.684"/></g><g transform="scale(-1 1) rotate(-24 359.712 1108.465)"><path d="M4.163 9.173c-1.505-.576-2.602-2.368-2.602-4.49C1.561 2.563 2.658.77 4.163.195V0h1.04c2.013 0 3.644 2.097 3.644 4.684 0 2.586-1.631 4.683-3.643 4.683h-1.04v-.194z" fill="url(#d)"/><ellipse fill="url(#e)" cx="3.643" cy="4.684" rx="3.643" ry="4.684"/></g></g></g><g><path fill="url(#W)" d="M0 11.649L25.81 0l27.27 11.649L25.81 28.1z" transform="translate(351.603 355.194)"/><path stroke="#FFF" opacity=".2" d="M377.363 359.357l-16.393 7.667 16.393 11.067 16.913-11.067z"/><path d="M26.02 28.101v-.208l27.06-16.444-27.06 39.55v.22L0 11.65 26.02 28.1z" fill="url(#X)" transform="translate(351.603 355.194)"/></g><g><path d="M495.518 288.268s13.166 11.606-3.125 17.259c-16.291 5.652-26.867-3.952-26.78-7.628.085-3.677 10.48-.836 16.91-4.777 6.43-3.941 1.502-14.936 12.995-4.854z" fill="#000" fill-rule="nonzero" opacity=".2"/><path stroke="url(#Y)" stroke-width=".551" d="M19.738 108.933l37.276-21.286L37.6 76.178.326 97.464z" transform="translate(431 174)"/><path fill="url(#Z)" fill-rule="nonzero" opacity=".3" d="M.326 97.464l19.412 11.469 37.276-21.286 1.561-66.659L.326 52.07z" transform="translate(431 174)"/><g fill-rule="nonzero"><path fill="url(#aa)" d="M.285 14.464l9.614 16.459v56.925L.285 82.205z" transform="translate(441.545 190.072)"/><path fill="url(#ab)" d="M.285 14.464l9.614 16.459 24.724-14.665L25.536.538z" transform="translate(441.545 190.072)"/><path fill="url(#ac)" d="M9.9 30.923v56.925l24.723-14.342V16.258z" transform="translate(441.545 190.072)"/></g><path fill="url(#ad)" fill-rule="nonzero" d="M19.383 27.801L26.65 40.24l18.684-11.082-6.867-11.88z" transform="translate(431 174)"/><g fill-rule="nonzero"><path fill="url(#ae)" d="M16.572.532l1.055 1.532-3.412 1.89-1.221-1.427z" transform="translate(452.645 194.505)"/><path fill="url(#af)" d="M18.448 3.006l1.055 1.532-3.411 1.89L14.87 5z" transform="translate(452.645 194.505)"/><path fill="url(#ag)" d="M20.34 5.706l1.056 1.532-3.412 1.89-1.22-1.427z" transform="translate(452.645 194.505)"/><path fill="url(#ah)" d="M10.62 3.781l1.055 1.532-3.412 1.89-1.22-1.427z" transform="translate(452.645 194.505)"/><path fill="url(#ai)" d="M12.497 6.256l1.055 1.532-3.412 1.889L8.919 8.25z" transform="translate(452.645 194.505)"/><path fill="url(#aj)" d="M14.39 8.955l1.054 1.533-3.412 1.889-1.22-1.427z" transform="translate(452.645 194.505)"/><path fill="url(#ak)" d="M4.045 7.379L5.1 8.91 1.69 10.8.468 9.373z" transform="translate(452.645 194.505)"/><path fill="url(#al)" d="M5.922 9.852l1.055 1.533-3.412 1.889-1.22-1.426z" transform="translate(452.645 194.505)"/><path fill="url(#am)" d="M7.815 12.552l1.054 1.532-3.411 1.89-1.221-1.427z" transform="translate(452.645 194.505)"/></g><g fill-rule="nonzero"><path d="M467.273 204.14s-1.89-.37-2.326-.299c-.436.07-.365-.251.018-.392.382-.142 1.256-.102.322-.619-.934-.517-1.884-.438-1.85-.79.031-.353.385-.279.692-.257.308.023 1.159.412 1.287.318.13-.093.921-.981 1.439-.832.517.15.78.628.927.979.079.186.443.607.443.607l-.952 1.284zM455.688 208.482s-.874-1.157-.976-1.59c-.102-.432-.433-.254-.433.153 0 .408.408 1.212-.561.517-.97-.694-1.275-1.611-1.658-1.459-.382.153-.153.459 0 .738.154.28.944.943.893 1.096-.051.153-.72 1.203-.338 1.636.382.432 1.03.511 1.485.528.242.009.867.204.867.204l.72-1.823z" fill="#FFCDA4"/><path d="M29.724 126.662s.287 1.437-.433 2.114c-.72.677-3.74.188-5.9-.857s-4.685-2.61-4.855-3.118c-.17-.507-.06-1.437.381-1.86.441-.423 10.807 3.72 10.807 3.72z" fill="url(#an)" transform="translate(451.535 174)"/><path d="M29.164 124.254s1.53 2.662-.466 3.507c-2.405 1.018-10.882-3.17-9.781-4.82.741-1.111 2.594-.678 5.595-.677 3 0 4.652 1.99 4.652 1.99z" fill="url(#ao)" transform="translate(451.535 174)"/><path d="M43.51 122.36s.286 1.437-.433 2.113c-.72.677-3.741.188-5.9-.857-2.16-1.045-4.686-2.61-4.856-3.117-.17-.508-.06-1.438.382-1.86.44-.424 10.807 3.72 10.807 3.72z" fill="url(#ap)" transform="translate(451.535 174)"/><path d="M42.95 119.951s1.529 2.662-.466 3.508c-2.405 1.018-10.883-3.171-9.781-4.82.741-1.111 2.593-.679 5.594-.678 3 0 4.652 1.99 4.652 1.99z" fill="url(#aq)" transform="translate(451.535 174)"/><path d="M494.059 233.549s2.314 9.057.046 17.171c-1.576 5.64 0 43.523 0 43.523s-1.388 1.937-4.513.017c0 0-4.714-39.27-4.764-41.967l-2.018.867s-2.717 12.325-2.717 18.23c0 5.907.594 27.989.594 27.989s-2.465 1.07-4.285-.594c0 0-2.83-23.158-3.386-29.449-.557-6.291 1.039-30.533 1.039-30.533s13.575-8.56 20.004-5.254z" fill="#FFCDA4"/><path d="M22.519 64.804s-3.026 22.001-2.162 25.21c.36 1.336 6.525 2.165 10.403 2.241 3.878.076 10.925-3.005 12.806-6.06.758-1.231-.093-6.465 1.044-10.732 1.302-4.888 1.2-12.89-.03-14.02-2.056-1.894-22.061 3.361-22.061 3.361z" fill="url(#ar)" transform="translate(451.535 174)"/><path d="M41.743 62.891s2.134 8.056 1.013 11.213-7.836 3.106-9.246 2.902c-1.411-.204-1.9 1.63-.637 2.343 1.265.712 5.14-.204 6.875-.612 1.733-.407 1.571 9.843.268 10.559 0 0 2.69-1.475 3.55-3.101.86-1.627.02-6.461.63-8.573 1.06-3.67 2.719-12.494.385-16.18 0 0-2.992.7-2.838 1.45z" fill="url(#as)" opacity=".4" transform="translate(451.535 174)"/><path d="M23.606 31.244l-6.908-2.52s-1.648.528-1.25 1.637c.453.444 4.753 3.324 7.237 3.776 2.485.45.921-2.893.921-2.893z" fill="url(#at)" transform="translate(451.535 174)"/><path d="M480.093 189.422s.851 4.648 1.044 5.322c.193.674 4.204-1.845 4.925-2.808l-.72-4.94c0-.001-3.69.665-5.25 2.426z" stroke="#000" stroke-width=".5" fill="#FFF"/><path d="M485.48 191.529s1.539 1 1.925 1.674c0 0-2.684 4.635-7.312 4.346l1.044-2.805 4.342-3.215z" stroke="#000" stroke-width=".5" fill="#FFF"/><path d="M35.87 19.203s3.76 1.252 4.629 5.296c.868 4.044 2.607 20.857 2.511 24.323-.096 3.467 1.86 10.983 1.571 12.62-.289 1.637-4.212 1.332-9.257 2.696-6.172 1.67-9.46 3.8-12.272 1.967-1.543-1.005-.08-13.002.594-15.506.675-2.503-1.564-13.499-1.255-15.017.294-1.446 3.23-8.856 6.167-12.033 2.936-3.177 7.312-4.346 7.312-4.346z" fill="url(#au)" transform="translate(451.535 174)"/><path d="M28.662 38.32s.906 7.278-.382 11.44c-1.288 4.163-1.073 15.267-.95 16.819 0 0-2.38.837-4.278-.474-1.899-1.31.247-13.79.247-13.79s.598-2.599.415-4.585c-.183-1.986-.662-5.607-.662-5.607l5.61-3.804z" fill="url(#av)" transform="translate(451.535 174)"/><path d="M30.169 22.856s1.658 1.522 2.148 4.569c.49 3.047-1.725 8.292-3.655 10.894-1.676 2.26-4.759 4.411-8.846 4.055-7.748-.675-16.46-5.752-16.46-5.752s-.478-1.833 1.354-2.385c2.624 1.15 8.683 3.292 16.184 2.665 5.29-.442 4.157-14.507 9.275-14.046z" fill="url(#aw)" transform="translate(451.535 174)"/><path d="M474.593 179.794s-.192 10.009 1.641 11.357c1.834 1.347 6.026-1.348 6.026-1.348s4.666-3.852 1.917-6.644c-2.749-2.793-9.584-3.365-9.584-3.365z" fill="#FFCDA4"/><path d="M22.99 1.46c-2.79 1.702-2.123 5.652-.797 6.416 1.325.764 4.487.713 5.048 2.24.561 1.529-.11 3.178-.707 5.565-.765 3.055.851 4.15 2.024 5.933 1.173 1.782-1.37 5.054.366 8.362 2.618 4.99 9.867 7.466 14.534 3.972 6.369-4.769 4.37-10.748 3.146-12.527-1.224-1.778-8.144-5.703-8.399-10.948-.254-5.245-7.7-13.596-15.215-9.013z" fill="url(#ax)" transform="translate(451.535 174)"/></g></g><g><path d="M5.309 111.721s-13.171 11.554 3.125 17.181c16.297 5.627 26.877-3.933 26.79-7.593-.086-3.66-10.485-.832-16.917-4.755-6.432-3.925-1.501-14.87-12.998-4.833z" fill="url(#ay)" fill-rule="nonzero" opacity=".6" transform="translate(136 269)"/><path stroke="url(#az)" stroke-width=".551" d="M38.924 110.262L1.636 89.072l19.42-11.417 37.287 21.19z" transform="translate(142.662 273.965)"/><path fill="url(#aA)" fill-rule="nonzero" opacity=".3" d="M58.343 98.845l-19.42 11.417-37.287-21.19L.074 22.714l58.27 30.941z" transform="translate(142.662 273.965)"/><g fill-rule="nonzero"><path fill="url(#aB)" d="M9.393.872l25.26 13.758v17.854L9.393 18.621z" transform="translate(155.432 273.965)"/><path fill="url(#aC)" d="M34.653 32.484L25.035 48.87.304 34.27l9.089-15.649z" transform="translate(155.432 273.965)"/><path fill="url(#aD)" d="M25.035 48.869v56.669L.304 91.26V34.27z" transform="translate(155.432 273.965)"/><path fill="url(#aE)" d="M9.393.872l1.17-.717 25.254 13.934-1.164.54z" transform="translate(155.432 273.965)"/><path fill="url(#aF)" d="M35.817 14.089v20.498l-8.81 14.282h-1.972l9.618-16.385V14.63" transform="translate(155.432 273.965)"/><path fill="url(#aG)" d="M27.008 48.869v53.953l9.938-5.792v1.576l-11.91 6.932v-56.67z" transform="translate(155.432 273.965)"/><path fill="url(#aH)" d="M36.946 97.03l-9.938-5.576v11.368z" transform="translate(155.432 273.965)"/></g><path fill="url(#aI)" fill-rule="nonzero" d="M12.015 4.153L32.03 15.055v14.148L12.015 18.218z" transform="translate(155.432 273.965)"/><path d="M168.465 287.18l1.151.662c.345.198.603.516.726.892.155.47.504 1.393.836 1.58.992.563 2.234-4.285 4.046-3.728 1.812.558 1.686 8.267 3.196 9.188 1.51.922 3.45-3.307 4.27-2.62.82.685.424 2.506 2.07 2.869" stroke="#223EC2" stroke-width=".5" stroke-linecap="round"/><g stroke="#AE4AF5" stroke-width=".5"><path d="M171.178 290.315v.317"/><path d="M171.178 291.194v.842" stroke-dasharray="0.488592004776001,0.488592004776001"/><path d="M171.178 292.317v.317"/></g><path d="M171.488 290.408c0 .196-.14.275-.311.176a.68.68 0 0 1-.311-.533c0-.196.14-.275.31-.176a.68.68 0 0 1 .312.533z" fill="#AE4AF5" fill-rule="nonzero"/><g stroke="#AE4AF5" stroke-width=".5"><path d="M175.177 286.778v.317"/><path d="M175.177 287.695v6.9" stroke-dasharray="0.5220479965209961,0.5220479965209961"/><path d="M175.176 294.896v.316"/></g><path d="M175.488 286.871c0 .196-.14.275-.311.176a.68.68 0 0 1-.311-.533c0-.196.14-.275.31-.176a.68.68 0 0 1 .312.533z" fill="#AE4AF5" fill-rule="nonzero"/><g stroke="#AE4AF5" stroke-width=".5"><path d="M178.567 295.862v.317M178.567 296.825v.316"/></g><path d="M178.877 295.955c0 .196-.14.275-.31.176a.68.68 0 0 1-.312-.533c0-.196.14-.275.311-.176a.68.68 0 0 1 .311.533z" fill="#AE4AF5" fill-rule="nonzero"/><g><g stroke="#AE4AF5" stroke-width=".5"><path d="M182.504 293.313v.316"/><path d="M182.504 294.216v4.403" stroke-dasharray="0.5107680320739746,0.5107680320739746"/><path d="M182.504 298.912v.317"/></g><path d="M182.815 293.405c0 .196-.14.275-.311.176a.68.68 0 0 1-.311-.533c0-.195.14-.274.31-.176a.68.68 0 0 1 .312.533z" fill="#AE4AF5" fill-rule="nonzero"/></g><path fill="#223EC2" fill-rule="nonzero" d="M174.013 284.07l-5.05-2.897v-.585l5.05 2.897zM172.277 284.835l-3.314-1.922v-.584l3.314 1.922z"/><path d="M180.625 299.859s.37-.539.446-.995c.077-.456-.469-1.317.048-1.345.343-.019.354 1.022.72 1.019.528-.004.58-1.86 1.04-1.86.421 0-.144 1.71-.064 1.913.08.203.693.634.475 1.268-.217.633-1.237 1.42-1.237 1.42l-1.428-1.42zM167.252 299.445s.518-1.208 1.213-1.41c.694-.204 1.83-.406 1.982 0 .153.405-1.084 1.057-.892 1.295.191.238.74-.345.906-.256.165.088.268.367 0 .532-.269.165-1.474.646-1.784.83l-1.425-.991z" fill="#FFCDA4" fill-rule="nonzero"/><g fill-rule="nonzero"><path d="M9.132 20.852s-6.257.693-6.716 5.527c-.459 4.833-3.496 11.283-.983 13.077 2.514 1.793 7.7.818 7.7.818V20.852z" fill="url(#aJ)" transform="translate(138.776 269)"/><path d="M21.4 32.839l6.911-2.509 1.805 1.255s-5.31 3.684-7.794 4.133c-2.485.449-.922-2.88-.922-2.88z" fill="url(#aK)" transform="translate(138.776 269)"/><path d="M15.666 124.531s-.287 1.431.433 2.105c.72.673 3.742.187 5.903-.854 2.16-1.04 4.687-2.598 4.857-3.103.17-.505.06-1.431-.381-1.852-.442-.421-10.812 3.704-10.812 3.704z" fill="url(#aL)" transform="translate(138.776 269)"/><path d="M16.227 122.134s-1.53 2.65.466 3.492c2.405 1.013 10.886-3.157 9.785-4.799-.742-1.106-2.595-.675-5.597-.674-3.002 0-4.654 1.98-4.654 1.98z" fill="url(#aM)" transform="translate(138.776 269)"/><path d="M1.631 119.776s-.286 1.431.434 2.105c.72.673 3.741.187 5.902-.854 2.16-1.04 4.687-2.598 4.857-3.103.17-.505.06-1.431-.381-1.852-.442-.421-10.812 3.704-10.812 3.704z" fill="url(#aN)" transform="translate(138.776 269)"/><path d="M2.192 117.379s-1.53 2.65.466 3.492c2.406 1.013 10.886-3.157 9.785-4.8-.742-1.105-2.595-.674-5.597-.673-3.002 0-4.654 1.98-4.654 1.98z" fill="url(#aO)" transform="translate(138.776 269)"/><path d="M2.43 57.024S.115 66.04 2.383 74.118c1.577 5.615 0 43.327 0 43.327s1.531 1.86 4.934.255c0 0 4.296-39.333 4.346-42.016l2.02.863S16.4 88.817 16.4 94.695c0 5.88-.595 27.863-.595 27.863s1.868 1.5 4.373 0c0 0 2.745-23.645 3.302-29.907.557-6.263-2.209-31.589-2.209-31.589S8.861 53.732 2.43 57.024z" fill="url(#aP)" transform="translate(138.776 269)"/><path d="M155.223 286.087s-.852 4.628-1.045 5.299c-.193.67-4.205-1.838-4.927-2.796l.72-4.918s3.692.663 5.252 2.415z" fill="#FFCDA4"/><path d="M154.965 287.468l-.787 3.918s-1.916-2.558-2.095-5.09c0 0-.255-1.99 2.882 1.172z" fill="#F2B588"/><path d="M10.476 19.185s-.958.996-1.344 1.667c0 0 2.685 4.614 7.315 4.326l-1.045-2.792-4.926-3.201z" fill="url(#aQ)" transform="translate(138.776 269)"/><path d="M9.132 20.852s-3.654-.254-4.522 3.772C3.74 28.65 1.797 43.436 1.893 46.887c.097 3.45-1.432 9.771-.905 12.41.446 2.23 4.425 3.071 9.207 5.17 6.123 2.687 10.408.456 11.658-.507 1.456-1.122-.408-7.199-.306-10.126.09-2.58.367-12.852.198-14.386-.169-1.534-2.36-11.107-5.298-14.27-2.938-3.162-7.315-4.326-7.315-4.326z" fill="url(#aR)" transform="translate(138.776 269)"/><path d="M16.96 37.065s.965 7.176 1.066 10.521c.103 3.346-1.122 17.066 0 17.962 0 0 2.245-.22 3.826-1.588 1.581-1.369-.135-6.836-.222-8.48-.068-1.29.171-10.393.167-13.776 0-1.018-1.97-5.504-2.82-5.945-.849-.44-2.018 1.306-2.018 1.306z" fill="url(#aS)" opacity=".3" transform="translate(138.776 269)"/><path d="M14.881 26.124s-2.066.48-1.892 3.547c.173 3.067 4.513 8.052 6.25 10.256 1.736 2.205 5.246 2.843 9.164 1.63 7.428-2.3 15.241-8.915 15.241-8.915l-2.219-2.204s-7.29 5.25-15.246 6.026c-5.869.572-6.394-11.874-11.298-10.34z" fill="url(#aT)" transform="translate(138.776 269)"/><path d="M160.725 276.503s.191 9.964-1.642 11.306c-1.834 1.342-6.028-1.342-6.028-1.342s-4.668-3.834-1.918-6.614 9.588-3.35 9.588-3.35z" fill="#FFCDA4"/><path d="M8.784 15.718s3.385 2.536 4.855 1.578c2.244-1.463.568-2.13 1.527-3.28.958-1.15 1.505-4.345 2.053-2.428.547 1.917-.516 3.032.823 2.768.684-.135.82-.851.82-1.873 0-1.023.273-3.068 1.505-3.451 1.232-.384 2.301-1.35 2.301-3.14 0-1.788-3.986-6.05-8.366-5.856-5.146.228-6.885 4.54-6.939 6.692-.06 2.424-.463 7.584 1.42 8.99z" fill="url(#aU)" transform="translate(138.776 269)"/></g><path fill="url(#aV)" fill-rule="nonzero" d="M14.44 75.683l-3.689-1.228 2.215 16.426z" transform="translate(136 269)"/></g><g><path d="M5 4.338L0 3l5-3 23.615 6.126.415.52L49.905 26.31c1.633 20.094-5.996 29.588-22.887 28.482C15.608 45.345 8.268 32.774 5 17.08V4.338z" fill="url(#aW)" transform="translate(517.385 68.7)"/><path d="M23.615 9.126L0 3v17.08c3.269 15.694 10.608 28.265 22.018 37.712 16.89 1.106 24.52-8.388 22.887-28.482L24.03 9.645l-.415-.52z" fill="url(#aX)" transform="translate(517.385 68.7)"/><path d="M540.842 82.911L522 78v13.694c2.608 12.583 8.464 22.662 17.568 30.237 13.476.886 19.563-6.726 18.26-22.836l-16.655-15.767-.331-.417z" stroke="#FFF" opacity=".2"/></g><g><path fill="url(#aY)" fill-rule="nonzero" d="M16 4l7 4v33l-7-4z" transform="translate(199 277)"/><path fill="url(#aZ)" fill-rule="nonzero" opacity=".2" d="M.931 41.125l7 4L23 41l-7-4z" transform="translate(199 277)"/><path fill="url(#ba)" fill-rule="nonzero" transform="matrix(-1 0 0 1 252 277)" d="M23 4l7 4v33l-7-4z"/><path fill="url(#bb)" d="M23 0l7 4-7 4-7-4z" transform="translate(199 277)"/><path fill="url(#bc)" d="M36 4l7 4v45l-7-4z" transform="translate(199 277)"/><path fill="url(#bd)" opacity=".2" d="M9.953 56l7 4L43 53l-7-4z" transform="translate(199 277)"/><path fill="url(#be)" transform="matrix(-1 0 0 1 292 277)" d="M43 4l7 4v45l-7-4z"/><path fill="#F9F3DA" d="M242 277l7 4-7 4-7-4z"/><path fill="url(#bf)" d="M57 4l7 4v57l-7-4z" transform="translate(199 277)"/><path fill="url(#bg)" opacity=".2" d="M19.5 72l7 4L64 65l-7-4z" transform="translate(199 277)"/><path fill="url(#bh)" transform="matrix(-1 0 0 1 334 277)" d="M64 4l7 4v57l-7-4z"/><path fill="#68FFCE" d="M263 277l7 4-7 4-7-4z"/></g><g><path d="M66 12.383l-3-5.251 3-2 11.034 18.582-11.035 6.623v-9.163l-6.915-3.96-22.201 7.579L18.08 8.528 6.1 11 3.566 4.166 0 4.642l3-2L16.948 0l18.454 15.758 21.594-6.712L66 14.02v-1.637z" fill="url(#bi)" transform="translate(205.098 295.5)"/><path fill="url(#bj)" d="M0 4.642L3.1 13l11.98-2.472 18.803 16.265 22.201-7.579L63 23.174v9.163l11.035-6.623L62.999 7.132v8.888l-9.003-4.974-21.594 6.712L13.948 2z" transform="translate(205.098 295.5)"/></g></g></svg>