<?xml version="1.0" encoding="UTF-8"?>
<svg width="12px" height="12px" viewBox="0 0 12 12" version="1.1" xmlns="http://www.w3.org/2000/svg" xmlns:xlink="http://www.w3.org/1999/xlink">
    <!-- Generator: Sketch 55.2 (78181) - https://sketchapp.com -->
    <title>锁定</title>
    <desc>Created with Sketch.</desc>
    <g id="OSS故障_首页" stroke="none" stroke-width="1" fill="none" fill-rule="evenodd">
        <g id="OSS故障_告警流水监控窗_右键菜单" transform="translate(-385.000000, -220.000000)" fill="#2C9CFA">
            <g id="编组-2" transform="translate(43.000000, 106.000000)">
                <g id="编组-11备份" transform="translate(16.000000, 52.000000)">
                    <g id="编组-26" transform="translate(16.000000, 60.000000)">
                        <g id="编组-4" transform="translate(240.000000, 0.000000)">
                            <g id="锁定" transform="translate(70.000000, 2.000000)">
                                <path d="M10.734375,5.0378125 C11.1658919,5.03858776 11.5153673,5.38848247 11.515625,5.82 L11.515625,11.1707812 C11.5154534,11.6023598 11.1659529,11.9523496 10.734375,11.953125 L1.265625,11.953125 C0.834047129,11.9523496 0.484546625,11.6023598 0.484375,11.1707812 L0.484375,5.82 C0.484632749,5.38848247 0.834108089,5.03858776 1.265625,5.0378125 L2.53125,5.0378125 L2.53125,1.7678125 C2.53125,0.81890625 3.30234375,0.046875 4.25,0.046875 L7.71875,0.046875 C8.66640625,0.046875 9.4375,0.81890625 9.4375,1.7678125 L9.4375,5.0065625 C9.4375,5.01703125 9.4375,5.0275 9.4375,5.0378125 L10.734375,5.0378125 Z M6.453125,8.7734375 C6.72214401,8.57167325 6.83187293,8.22040185 6.72553383,7.90138456 C6.61919473,7.58236726 6.32064876,7.3671875 5.984375,7.3671875 C5.64810124,7.3671875 5.34955527,7.58236726 5.24321617,7.90138456 C5.13687707,8.22040185 5.24660599,8.57167325 5.515625,8.7734375 L5.515625,9.3359375 C5.515625,9.59482098 5.72549152,9.8046875 5.984375,9.8046875 C6.24325848,9.8046875 6.453125,9.59482098 6.453125,9.3359375 L6.453125,8.7734375 Z M3.78125,5.0390625 L8.1875,5.0390625 C8.1875,5.02875 8.1875,5.01828125 8.1875,5.0078125 L8.1875,1.7734375 C8.1875,1.51455402 7.97763348,1.3046875 7.71875,1.3046875 L4.25,1.3046875 C3.99111652,1.3046875 3.78125,1.51455402 3.78125,1.7734375 L3.78125,5.0390625 Z" id="合并形状"></path>
                            </g>
                        </g>
                    </g>
                </g>
            </g>
        </g>
    </g>
</svg>