<?xml version="1.0" encoding="UTF-8"?>
<svg width="12px" height="12px" viewBox="0 0 12 12" version="1.1" xmlns="http://www.w3.org/2000/svg" xmlns:xlink="http://www.w3.org/1999/xlink">
    <!-- Generator: Sketch 55.2 (78181) - https://sketchapp.com -->
    <title>解锁</title>
    <desc>Created with Sketch.</desc>
    <g id="OSS故障_首页" stroke="none" stroke-width="1" fill="none" fill-rule="evenodd" opacity="0.65">
        <g id="OSS故障_告警流水监控窗_右键菜单" transform="translate(-793.000000, -220.000000)" fill="#000000" fill-rule="nonzero">
            <g id="编组-2" transform="translate(43.000000, 106.000000)">
                <g id="编组-11备份-2" transform="translate(436.000000, 52.000000)">
                    <g id="编组-26" transform="translate(16.000000, 60.000000)">
                        <g id="编组-4" transform="translate(244.000000, 0.000000)">
                            <g id="4.图标/界面/19.unlock/outline" transform="translate(52.000000, 0.000000)">
                                <path d="M12.734375,7.0390625 C13.1656333,7.03957908 13.5151084,7.3890542 13.515625,7.8203125 L13.515625,13.1640625 C13.5151084,13.5953208 13.1656333,13.9447959 12.734375,13.9453125 L3.265625,13.9453125 C2.8343667,13.9447959 2.48489158,13.5953208 2.484375,13.1640625 L2.484375,7.8203125 C2.48489158,7.3890542 2.8343667,7.03957908 3.265625,7.0390625 L4.53125,7.0390625 L4.53125,3.7734375 C4.5323693,2.8246621 5.3012246,2.0558068 6.25,2.0546875 L9.71875,2.0546875 C10.6675254,2.0558068 11.4363807,2.8246621 11.4375,3.7734375 L11.4375,4.3671875 C11.4375,4.71236547 11.157678,4.9921875 10.8125,4.9921875 C10.467322,4.9921875 10.1875,4.71236547 10.1875,4.3671875 L10.1875,3.7734375 C10.1875,3.51455402 9.97763348,3.3046875 9.71875,3.3046875 L6.25,3.3046875 C5.99111652,3.3046875 5.78125,3.51455402 5.78125,3.7734375 L5.78125,7.0390625 L12.734375,7.0390625 Z M12.265625,12.6953125 L12.265625,8.2890625 L3.734375,8.2890625 L3.734375,12.6953125 L12.265625,12.6953125 Z M7.515625,10.7734375 C7.24660599,10.5716732 7.13687707,10.2204019 7.24321617,9.90138456 C7.34955527,9.58236726 7.64810124,9.3671875 7.984375,9.3671875 C8.32064876,9.3671875 8.61919473,9.58236726 8.72553383,9.90138456 C8.83187293,10.2204019 8.72214401,10.5716732 8.453125,10.7734375 L8.453125,11.3359375 C8.453125,11.594821 8.24325848,11.8046875 7.984375,11.8046875 C7.72549152,11.8046875 7.515625,11.594821 7.515625,11.3359375 L7.515625,10.7734375 Z" id="合并形状"></path>
                            </g>
                        </g>
                    </g>
                </g>
            </g>
        </g>
    </g>
</svg>